<?xml version="1.0" encoding="UTF-8"?>
<!DOCTYPE svg PUBLIC "-//W3C//DTD SVG 1.1//EN" "http://www.w3.org/Graphics/SVG/1.1/DTD/svg11.dtd">
<!-- Creator: CorelDRAW X8 -->
<svg xmlns="http://www.w3.org/2000/svg" xml:space="preserve" width="23.0654mm" height="23.0654mm" version="1.1" style="shape-rendering:geometricPrecision; text-rendering:geometricPrecision; image-rendering:optimizeQuality; fill-rule:evenodd; clip-rule:evenodd"
viewBox="0 0 356 356"
 xmlns:xlink="http://www.w3.org/1999/xlink">
 <defs>
  <style type="text/css">
   <![CDATA[
    .str0 {stroke:#FEFEFE;stroke-width:3.08738}
    .fil0 {fill:#FEFEFE}
    .fil1 {fill:#2279BD}
    .fil3 {fill:#00A859}
    .fil2 {fill:#007DCC}
   ]]>
  </style>
 </defs>
 <g id="DESIGNED_x0020_BY_x0020_FREEPIK">
  <metadata id="CorelCorpID_0Corel-Layer"/>
  <circle class="fil0 str0" cx="178" cy="178" r="176"/>
  <g id="_1685675569984">
   <path class="fil1" d="M250 164c-4,-19 -20,-32 -40,-32 -3,0 -6,0 -9,1 -13,-18 -34,-29 -58,-29 -34,0 -63,24 -69,57 -17,6 -29,22 -29,41 0,24 20,44 44,44 1,0 1,0 1,0l150 0c0,0 1,0 1,0 1,0 1,0 2,0l0 0 0 0c22,-1 40,-19 40,-42 0,-19 -14,-36 -33,-40z"/>
   <path class="fil2" d="M250 164c-4,-19 -20,-32 -40,-32 -3,0 -6,0 -9,1 -13,-18 -34,-29 -58,-29 -34,0 -63,24 -69,57 -17,6 -29,22 -29,41 0,24 20,44 44,44 1,0 1,0 1,0l150 0c0,0 1,0 1,0 1,0 1,0 2,0l0 0 0 0c22,-1 40,-19 40,-42 0,-19 -14,-36 -33,-40z"/>
   <g>
    <circle class="fil0" cx="265" cy="207" r="45"/>
    <circle class="fil3" cx="265" cy="207" r="38"/>
    <path class="fil0" d="M248 206l13 9c7,-9 14,-17 20,-26 4,-5 12,1 8,6 -7,10 -14,20 -22,30 -1,2 -5,2 -8,1l-17 -12c-5,-4 0,-12 6,-8z"/>
   </g>
  </g>
 </g>
</svg>
